<mxfile host="app.diagrams.net" modified="2024-07-23T20:19:17.723Z" agent="Mozilla/5.0 (Windows NT 10.0; Win64; x64) AppleWebKit/537.36 (KHTML, like Gecko) Chrome/126.0.0.0 Safari/537.36" etag="6_N2fvSpBGm5gNY10KYW" version="24.7.1" type="device">
  <diagram id="R3SQE3UpfUcW1qEx0CAd" name="1 oldal">
    <mxGraphModel dx="2074" dy="1180" grid="1" gridSize="10" guides="1" tooltips="1" connect="1" arrows="1" fold="1" page="1" pageScale="1" pageWidth="827" pageHeight="1169" math="0" shadow="0">
      <root>
        <mxCell id="0" />
        <mxCell id="1" parent="0" />
        <mxCell id="KuercbWssHErv0-euDvu-2" value="Skills" style="rounded=0;whiteSpace=wrap;html=1;verticalAlign=top;fillColor=#fff2cc;strokeColor=#d6b656;" vertex="1" parent="1">
          <mxGeometry x="440" y="40" width="170" height="240" as="geometry" />
        </mxCell>
        <mxCell id="If7kS7Pv6uzpJFHK89kp-1" value="AcquiredSkills" style="rounded=0;whiteSpace=wrap;html=1;verticalAlign=top;fillColor=#fff2cc;strokeColor=#d6b656;" parent="1" vertex="1">
          <mxGeometry x="240" y="40" width="170" height="240" as="geometry" />
        </mxCell>
        <mxCell id="If7kS7Pv6uzpJFHK89kp-2" value="Employees" style="rounded=0;whiteSpace=wrap;html=1;verticalAlign=top;fillColor=#fff2cc;strokeColor=#d6b656;" parent="1" vertex="1">
          <mxGeometry x="40" y="40" width="170" height="240" as="geometry" />
        </mxCell>
        <mxCell id="If7kS7Pv6uzpJFHK89kp-7" style="edgeStyle=orthogonalEdgeStyle;rounded=0;orthogonalLoop=1;jettySize=auto;html=1;exitX=0.5;exitY=1;exitDx=0;exitDy=0;endArrow=none;endFill=0;" parent="1" source="If7kS7Pv6uzpJFHK89kp-3" target="If7kS7Pv6uzpJFHK89kp-6" edge="1">
          <mxGeometry relative="1" as="geometry" />
        </mxCell>
        <mxCell id="If7kS7Pv6uzpJFHK89kp-3" value="Employee" style="rounded=0;whiteSpace=wrap;html=1;" parent="1" vertex="1">
          <mxGeometry x="65" y="90" width="120" height="60" as="geometry" />
        </mxCell>
        <mxCell id="If7kS7Pv6uzpJFHK89kp-6" value="Address" style="rounded=0;whiteSpace=wrap;html=1;" parent="1" vertex="1">
          <mxGeometry x="65" y="190" width="120" height="60" as="geometry" />
        </mxCell>
        <mxCell id="If7kS7Pv6uzpJFHK89kp-9" value="Skill" style="rounded=0;whiteSpace=wrap;html=1;fillColor=#d5e8d4;strokeColor=#82b366;" parent="1" vertex="1">
          <mxGeometry x="465" y="90" width="120" height="60" as="geometry" />
        </mxCell>
        <mxCell id="If7kS7Pv6uzpJFHK89kp-12" style="edgeStyle=orthogonalEdgeStyle;rounded=0;orthogonalLoop=1;jettySize=auto;html=1;exitX=0.5;exitY=1;exitDx=0;exitDy=0;endArrow=none;endFill=0;" parent="1" source="If7kS7Pv6uzpJFHK89kp-18" target="If7kS7Pv6uzpJFHK89kp-11" edge="1">
          <mxGeometry relative="1" as="geometry">
            <mxPoint x="340" y="150" as="sourcePoint" />
          </mxGeometry>
        </mxCell>
        <mxCell id="If7kS7Pv6uzpJFHK89kp-11" value="AcquiredSkill" style="rounded=0;whiteSpace=wrap;html=1;fillColor=#d5e8d4;strokeColor=#82b366;" parent="1" vertex="1">
          <mxGeometry x="265" y="190" width="120" height="60" as="geometry" />
        </mxCell>
        <mxCell id="If7kS7Pv6uzpJFHK89kp-16" value="Employee" style="rounded=0;whiteSpace=wrap;html=1;fillColor=#d5e8d4;strokeColor=#82b366;" parent="1" vertex="1">
          <mxGeometry x="65" y="90" width="120" height="60" as="geometry" />
        </mxCell>
        <mxCell id="If7kS7Pv6uzpJFHK89kp-17" value="Address" style="rounded=0;whiteSpace=wrap;html=1;fillColor=#d5e8d4;strokeColor=#82b366;" parent="1" vertex="1">
          <mxGeometry x="65" y="190" width="120" height="60" as="geometry" />
        </mxCell>
        <mxCell id="KuercbWssHErv0-euDvu-4" style="edgeStyle=orthogonalEdgeStyle;rounded=0;orthogonalLoop=1;jettySize=auto;html=1;exitX=0;exitY=0.5;exitDx=0;exitDy=0;entryX=1;entryY=0.5;entryDx=0;entryDy=0;dashed=1;" edge="1" parent="1" source="If7kS7Pv6uzpJFHK89kp-18" target="If7kS7Pv6uzpJFHK89kp-16">
          <mxGeometry relative="1" as="geometry" />
        </mxCell>
        <mxCell id="KuercbWssHErv0-euDvu-5" style="edgeStyle=orthogonalEdgeStyle;rounded=0;orthogonalLoop=1;jettySize=auto;html=1;exitX=1;exitY=0.5;exitDx=0;exitDy=0;entryX=0;entryY=0.5;entryDx=0;entryDy=0;dashed=1;" edge="1" parent="1" source="If7kS7Pv6uzpJFHK89kp-18" target="If7kS7Pv6uzpJFHK89kp-9">
          <mxGeometry relative="1" as="geometry" />
        </mxCell>
        <mxCell id="If7kS7Pv6uzpJFHK89kp-18" value="EmployeeSkills" style="rounded=0;whiteSpace=wrap;html=1;fillColor=#d5e8d4;strokeColor=#82b366;" parent="1" vertex="1">
          <mxGeometry x="265" y="90" width="120" height="60" as="geometry" />
        </mxCell>
      </root>
    </mxGraphModel>
  </diagram>
</mxfile>
